<?xml version="1.0" standalone="no"?>
<!DOCTYPE svg PUBLIC "-//W3C//DTD SVG 20010904//EN"
 "http://www.w3.org/TR/2001/REC-SVG-20010904/DTD/svg10.dtd">
<svg version="1.0" xmlns="http://www.w3.org/2000/svg"
 width="1277.000000pt" height="1280.000000pt" viewBox="0 0 1277.000000 1280.000000"
 preserveAspectRatio="xMidYMid meet">
<metadata>
Created by potrace 1.15, written by Peter Selinger 2001-2017
</metadata>
<g transform="translate(0.000000,1280.000000) scale(0.100000,-0.100000)"
fill="#673ab7" stroke="none">
<path d="M0 12389 l0 -411 27 6 c62 13 478 87 618 110 1413 237 2740 296 3940
175 404 -41 698 -91 1495 -254 730 -150 996 -196 1510 -259 376 -47 662 -72
1100 -98 273 -16 1242 -16 1525 0 859 49 1574 136 2463 298 l92 17 0 409 c0
224 -1 408 -3 408 -2 0 -86 -18 -188 -40 -316 -69 -359 -78 -539 -104 -876
-128 -1582 -180 -2465 -180 -1086 0 -2019 89 -3054 294 l-204 40 -3159 0
-3158 0 0 -411z"/>
<path d="M2710 12059 c-842 -30 -1520 -107 -2647 -301 l-63 -11 0 -410 0 -409
33 6 c270 54 1319 206 1425 206 10 0 12 -28 10 -127 l-3 -128 -60 -8 c-564
-71 -890 -120 -1242 -188 l-163 -31 0 -410 c0 -385 1 -409 18 -404 77 22 569
110 837 150 157 23 576 76 603 76 9 0 12 -35 12 -120 l0 -119 -32 -6 c-18 -3
-114 -16 -213 -30 -352 -50 -847 -140 -1138 -207 l-87 -20 0 -408 0 -408 153
38 c177 45 392 90 562 119 110 19 600 76 705 83 l45 3 3 -119 c1 -66 -1 -123
-6 -128 -5 -5 -80 -17 -168 -28 -369 -44 -1027 -146 -1267 -196 l-27 -6 0
-409 c0 -386 1 -410 18 -405 102 32 1299 206 1415 206 l38 0 -3 -127 -3 -128
-120 -12 c-354 -37 -1182 -167 -1327 -209 -17 -5 -18 -33 -18 -410 0 -297 3
-404 11 -404 7 0 114 20 238 44 352 69 881 149 1144 172 l77 7 0 -117 c0 -84
-3 -118 -12 -121 -7 -2 -110 -18 -228 -35 -359 -52 -879 -146 -1170 -213 l-55
-12 -3 -408 c-1 -224 0 -407 3 -407 4 0 59 13 123 29 285 71 534 120 772 150
156 20 529 61 556 61 11 0 14 -24 14 -135 l0 -134 -32 -5 c-18 -3 -130 -17
-248 -31 -357 -43 -1113 -153 -1172 -171 -17 -5 -18 -34 -18 -431 l0 -425 22
6 c198 54 1309 246 1428 246 20 0 21 -4 18 -122 l-3 -123 -55 -7 c-30 -4 -131
-17 -225 -28 -332 -42 -685 -100 -1007 -167 l-178 -37 0 -409 c0 -367 2 -409
16 -403 39 15 431 89 639 120 127 19 352 53 500 75 149 23 280 41 293 41 22 0
23 -1 20 -127 l-3 -128 -65 -8 c-133 -16 -540 -79 -700 -108 -268 -49 -689
-135 -697 -143 -2 -2 -2 -185 -1 -408 l3 -405 95 23 c220 54 455 104 600 128
158 27 664 86 733 86 l37 0 0 -130 c0 -96 -3 -132 -12 -135 -7 -2 -143 -21
-303 -40 -312 -39 -642 -86 -957 -137 l-198 -31 0 -429 c0 -236 4 -427 8 -424
16 10 553 115 787 155 1232 207 2440 255 3690 145 375 -32 844 -92 1212 -155
250 -42 291 -50 903 -169 1017 -199 1340 -243 2130 -292 275 -17 1258 -17
1540 0 821 50 1448 123 2240 263 124 22 233 42 243 45 16 5 17 34 17 431 l0
425 -27 -7 c-336 -86 -876 -191 -1233 -240 -63 -8 -127 -17 -142 -20 l-28 -5
0 138 0 138 118 13 c268 29 740 104 1115 177 l197 39 0 407 c0 225 -2 408 -4
408 -2 0 -104 -20 -227 -44 -329 -66 -691 -123 -1049 -166 -47 -6 -100 -12
-117 -15 l-33 -4 0 124 0 124 43 6 c272 37 365 51 565 85 218 38 480 89 720
141 l102 22 0 409 c0 224 -3 408 -7 408 -34 0 -232 -42 -453 -95 -146 -35
-303 -71 -350 -79 -62 -12 -587 -76 -617 -76 -1 0 -3 60 -3 133 l0 133 118 13
c192 21 709 98 987 146 143 26 275 49 293 52 l32 6 0 429 c0 404 -1 429 -17
424 -123 -36 -538 -127 -808 -175 -158 -29 -564 -91 -592 -91 -10 0 -13 34
-13 140 l0 139 33 5 c17 3 75 10 127 17 255 29 827 118 1133 176 l137 26 0
407 c0 384 -1 408 -17 404 -189 -41 -626 -120 -848 -153 -146 -21 -531 -71
-552 -71 -10 0 -13 32 -13 128 l0 129 103 12 c388 46 923 138 1239 212 l88 21
0 407 0 408 -97 -24 c-329 -80 -742 -153 -1290 -228 l-43 -6 0 135 c0 156 -16
138 135 156 297 36 870 138 1190 213 l100 24 3 406 c1 224 -2 407 -6 407 -5 0
-103 -22 -218 -49 -338 -80 -701 -148 -1041 -195 l-163 -23 0 142 0 141 213
27 c363 46 1111 167 1199 193 17 5 18 33 18 410 0 227 -4 404 -9 404 -5 0 -98
-18 -207 -40 -397 -79 -1064 -180 -1186 -180 l-28 0 0 125 c0 121 1 125 23
129 12 3 101 15 197 26 244 30 664 101 925 155 121 25 235 49 253 52 l32 6 0
410 0 410 -27 -6 c-272 -59 -671 -131 -922 -167 -133 -19 -457 -60 -473 -60
-4 0 -8 56 -8 124 l0 124 33 5 c17 3 52 8 77 11 338 42 751 115 1218 217 l102
22 0 409 0 408 -27 -6 c-16 -3 -41 -10 -58 -15 -61 -18 -436 -99 -615 -133
-350 -67 -718 -119 -1185 -168 -195 -20 -274 -22 -1125 -26 -967 -4 -1032 -2
-1520 44 -659 62 -1086 127 -1940 294 -938 184 -1206 228 -1625 269 -636 63
-1318 83 -1965 60z"/>
<path d="M2715 1300 c-723 -29 -1433 -101 -2135 -216 -118 -19 -527 -93 -558
-101 l-22 -5 0 -408 0 -407 78 18 c265 65 1226 214 1667 259 411 42 674 53
1250 53 543 0 836 -10 1405 -48 480 -32 915 -98 1725 -260 154 -31 428 -85
610 -121 l329 -64 2466 0 c2421 0 2467 1 2575 20 114 21 441 88 580 119 l80
17 3 407 2 407 -24 0 c-37 0 -251 -44 -436 -90 -343 -85 -505 -110 -1110 -169
-994 -98 -1940 -117 -2720 -56 -460 37 -762 81 -1718 255 -667 121 -1006 180
-1267 220 -565 87 -990 135 -1440 160 -245 14 -1082 20 -1340 10z"/>
</g>
</svg>
